<svg xmlns="http://www.w3.org/2000/svg" xmlns:xlink="http://www.w3.org/1999/xlink" width="500" zoomAndPan="magnify" viewBox="0 0 375 374.999991" height="500" preserveAspectRatio="xMidYMid meet" version="1.0"><defs><g/></defs><g fill="#64ffda" fill-opacity="1"><g transform="translate(12.637373, 162.884008)"><g><path d="M 6.390625 -6.125 L 1.9375 -4.34375 L 6.390625 -2.5625 L 6.390625 -0.9375 L 0.4375 -3.421875 L 0.4375 -5.28125 L 6.390625 -7.765625 Z M 6.390625 -6.125 "/></g></g></g><g fill="#64ffda" fill-opacity="1"><g transform="translate(21.479472, 162.884008)"><g><path d="M 0.9375 -9.390625 L 5.03125 -9.390625 C 6.226562 -9.390625 7.15625 -9.101562 7.8125 -8.53125 C 8.476562 -7.96875 8.8125 -7.160156 8.8125 -6.109375 C 8.8125 -5.015625 8.476562 -4.160156 7.8125 -3.546875 C 7.15625 -2.941406 6.226562 -2.640625 5.03125 -2.640625 L 3.328125 -2.640625 L 3.328125 0 L 0.9375 0 Z M 3.328125 -7.5 L 3.328125 -4.515625 L 4.90625 -4.515625 C 5.4375 -4.515625 5.84375 -4.644531 6.125 -4.90625 C 6.414062 -5.164062 6.5625 -5.539062 6.5625 -6.03125 C 6.5625 -6.507812 6.414062 -6.875 6.125 -7.125 C 5.84375 -7.375 5.4375 -7.5 4.90625 -7.5 Z M 3.328125 -7.5 "/></g></g></g><g fill="#64ffda" fill-opacity="1"><g transform="translate(32.59866, 162.884008)"><g><path d="M 0.421875 -2.671875 L 4.890625 -4.453125 L 0.421875 -6.234375 L 0.421875 -7.859375 L 6.390625 -5.375 L 6.390625 -3.515625 L 0.421875 -1.03125 Z M 0.421875 -2.671875 "/></g></g></g><g fill="#9aa3ba" fill-opacity="1"><g transform="translate(41.440759, 162.884008)"><g><path d="M 0.9375 -9.390625 L 5.03125 -9.390625 C 6.226562 -9.390625 7.15625 -9.101562 7.8125 -8.53125 C 8.476562 -7.96875 8.8125 -7.160156 8.8125 -6.109375 C 8.8125 -5.015625 8.476562 -4.160156 7.8125 -3.546875 C 7.15625 -2.941406 6.226562 -2.640625 5.03125 -2.640625 L 3.328125 -2.640625 L 3.328125 0 L 0.9375 0 Z M 3.328125 -7.5 L 3.328125 -4.515625 L 4.90625 -4.515625 C 5.4375 -4.515625 5.84375 -4.644531 6.125 -4.90625 C 6.414062 -5.164062 6.5625 -5.539062 6.5625 -6.03125 C 6.5625 -6.507812 6.414062 -6.875 6.125 -7.125 C 5.84375 -7.375 5.4375 -7.5 4.90625 -7.5 Z M 3.328125 -7.5 "/></g></g></g><g fill="#9aa3ba" fill-opacity="1"><g transform="translate(52.559947, 162.884008)"><g><path d="M 6.59375 0 L 5.203125 -2.640625 L 3.328125 -2.640625 L 3.328125 0 L 0.9375 0 L 0.9375 -9.390625 L 5.140625 -9.390625 C 6.378906 -9.390625 7.335938 -9.101562 8.015625 -8.53125 C 8.691406 -7.96875 9.03125 -7.160156 9.03125 -6.109375 C 9.03125 -4.660156 8.460938 -3.65625 7.328125 -3.09375 L 9.296875 0 Z M 3.328125 -4.515625 L 5.140625 -4.515625 C 5.648438 -4.515625 6.046875 -4.644531 6.328125 -4.90625 C 6.617188 -5.164062 6.765625 -5.539062 6.765625 -6.03125 C 6.765625 -6.507812 6.617188 -6.875 6.328125 -7.125 C 6.046875 -7.375 5.648438 -7.5 5.140625 -7.5 L 3.328125 -7.5 Z M 3.328125 -4.515625 "/></g></g></g><g fill="#9aa3ba" fill-opacity="1"><g transform="translate(64.268494, 162.884008)"><g><path d="M 5.390625 -9.46875 C 6.847656 -9.46875 8.054688 -9.015625 9.015625 -8.109375 C 9.984375 -7.203125 10.46875 -6.066406 10.46875 -4.703125 C 10.46875 -3.335938 9.984375 -2.191406 9.015625 -1.265625 C 8.046875 -0.347656 6.835938 0.109375 5.390625 0.109375 C 3.941406 0.109375 2.734375 -0.347656 1.765625 -1.265625 C 0.804688 -2.179688 0.328125 -3.328125 0.328125 -4.703125 C 0.328125 -6.066406 0.804688 -7.203125 1.765625 -8.109375 C 2.734375 -9.015625 3.941406 -9.46875 5.390625 -9.46875 Z M 5.421875 -7.46875 C 4.679688 -7.46875 4.050781 -7.203125 3.53125 -6.671875 C 3.019531 -6.140625 2.765625 -5.476562 2.765625 -4.6875 C 2.765625 -3.90625 3.023438 -3.242188 3.546875 -2.703125 C 4.066406 -2.160156 4.6875 -1.890625 5.40625 -1.890625 C 6.132812 -1.890625 6.75 -2.160156 7.25 -2.703125 C 7.757812 -3.242188 8.015625 -3.90625 8.015625 -4.6875 C 8.015625 -5.476562 7.757812 -6.140625 7.25 -6.671875 C 6.75 -7.203125 6.140625 -7.46875 5.421875 -7.46875 Z M 5.421875 -7.46875 "/></g></g></g><g fill="#9aa3ba" fill-opacity="1"><g transform="translate(77.061998, 162.884008)"><g><path d="M 7.171875 -4.765625 L 9.234375 -4.765625 L 9.234375 -1.109375 C 8.722656 -0.753906 8.109375 -0.460938 7.390625 -0.234375 C 6.671875 -0.00390625 5.984375 0.109375 5.328125 0.109375 C 3.898438 0.109375 2.707031 -0.347656 1.75 -1.265625 C 0.800781 -2.179688 0.328125 -3.320312 0.328125 -4.6875 C 0.328125 -6.050781 0.816406 -7.1875 1.796875 -8.09375 C 2.773438 -9.007812 4.007812 -9.46875 5.5 -9.46875 C 6.195312 -9.46875 6.890625 -9.34375 7.578125 -9.09375 C 8.265625 -8.84375 8.847656 -8.503906 9.328125 -8.078125 L 7.984375 -6.453125 C 7.648438 -6.765625 7.257812 -7.007812 6.8125 -7.1875 C 6.363281 -7.375 5.921875 -7.46875 5.484375 -7.46875 C 4.710938 -7.46875 4.066406 -7.203125 3.546875 -6.671875 C 3.023438 -6.140625 2.765625 -5.476562 2.765625 -4.6875 C 2.765625 -3.894531 3.023438 -3.226562 3.546875 -2.6875 C 4.078125 -2.15625 4.734375 -1.890625 5.515625 -1.890625 C 6.015625 -1.890625 6.566406 -2.039062 7.171875 -2.34375 Z M 7.171875 -4.765625 "/></g></g></g><g fill="#9aa3ba" fill-opacity="1"><g transform="translate(89.025038, 162.884008)"><g><path d="M 6.59375 0 L 5.203125 -2.640625 L 3.328125 -2.640625 L 3.328125 0 L 0.9375 0 L 0.9375 -9.390625 L 5.140625 -9.390625 C 6.378906 -9.390625 7.335938 -9.101562 8.015625 -8.53125 C 8.691406 -7.96875 9.03125 -7.160156 9.03125 -6.109375 C 9.03125 -4.660156 8.460938 -3.65625 7.328125 -3.09375 L 9.296875 0 Z M 3.328125 -4.515625 L 5.140625 -4.515625 C 5.648438 -4.515625 6.046875 -4.644531 6.328125 -4.90625 C 6.617188 -5.164062 6.765625 -5.539062 6.765625 -6.03125 C 6.765625 -6.507812 6.617188 -6.875 6.328125 -7.125 C 6.046875 -7.375 5.648438 -7.5 5.140625 -7.5 L 3.328125 -7.5 Z M 3.328125 -4.515625 "/></g></g></g><g fill="#9aa3ba" fill-opacity="1"><g transform="translate(100.733585, 162.884008)"><g><path d="M 7.171875 -1.734375 L 3.0625 -1.734375 L 2.390625 0 L -0.0625 0 L 3.984375 -9.390625 L 6.4375 -9.390625 L 10.390625 0 L 7.84375 0 Z M 6.46875 -3.546875 L 5.140625 -7.015625 L 3.765625 -3.546875 Z M 6.46875 -3.546875 "/></g></g></g><g fill="#9aa3ba" fill-opacity="1"><g transform="translate(113.058287, 162.884008)"><g><path d="M 11.25 0 L 9.140625 0 L 9.125 -6.09375 L 6.875 -0.9375 L 5.328125 -0.9375 L 3.0625 -6.09375 L 3.0625 0 L 0.9375 0 L 0.9375 -9.390625 L 3.546875 -9.390625 L 6.09375 -3.8125 L 8.640625 -9.390625 L 11.25 -9.390625 Z M 11.25 0 "/></g></g></g><g fill="#9aa3ba" fill-opacity="1"><g transform="translate(127.25823, 162.884008)"><g><path d="M 11.25 0 L 9.140625 0 L 9.125 -6.09375 L 6.875 -0.9375 L 5.328125 -0.9375 L 3.0625 -6.09375 L 3.0625 0 L 0.9375 0 L 0.9375 -9.390625 L 3.546875 -9.390625 L 6.09375 -3.8125 L 8.640625 -9.390625 L 11.25 -9.390625 Z M 11.25 0 "/></g></g></g><g fill="#9aa3ba" fill-opacity="1"><g transform="translate(141.458172, 162.884008)"><g><path d="M 3.328125 0 L 0.9375 0 L 0.9375 -9.390625 L 3.328125 -9.390625 Z M 3.328125 0 "/></g></g></g><g fill="#9aa3ba" fill-opacity="1"><g transform="translate(147.728504, 162.884008)"><g><path d="M 9.59375 0 L 7.5 0 L 3.171875 -5.78125 L 3.171875 0 L 0.9375 0 L 0.9375 -9.390625 L 3.046875 -9.390625 L 7.375 -3.59375 L 7.375 -9.390625 L 9.59375 -9.390625 Z M 9.59375 0 "/></g></g></g><g fill="#9aa3ba" fill-opacity="1"><g transform="translate(160.26752, 162.884008)"><g><path d="M 7.171875 -4.765625 L 9.234375 -4.765625 L 9.234375 -1.109375 C 8.722656 -0.753906 8.109375 -0.460938 7.390625 -0.234375 C 6.671875 -0.00390625 5.984375 0.109375 5.328125 0.109375 C 3.898438 0.109375 2.707031 -0.347656 1.75 -1.265625 C 0.800781 -2.179688 0.328125 -3.320312 0.328125 -4.6875 C 0.328125 -6.050781 0.816406 -7.1875 1.796875 -8.09375 C 2.773438 -9.007812 4.007812 -9.46875 5.5 -9.46875 C 6.195312 -9.46875 6.890625 -9.34375 7.578125 -9.09375 C 8.265625 -8.84375 8.847656 -8.503906 9.328125 -8.078125 L 7.984375 -6.453125 C 7.648438 -6.765625 7.257812 -7.007812 6.8125 -7.1875 C 6.363281 -7.375 5.921875 -7.46875 5.484375 -7.46875 C 4.710938 -7.46875 4.066406 -7.203125 3.546875 -6.671875 C 3.023438 -6.140625 2.765625 -5.476562 2.765625 -4.6875 C 2.765625 -3.894531 3.023438 -3.226562 3.546875 -2.6875 C 4.078125 -2.15625 4.734375 -1.890625 5.515625 -1.890625 C 6.015625 -1.890625 6.566406 -2.039062 7.171875 -2.34375 Z M 7.171875 -4.765625 "/></g></g></g><g fill="#9aa3ba" fill-opacity="1"><g transform="translate(172.230555, 162.884008)"><g/></g></g><g fill="#9aa3ba" fill-opacity="1"><g transform="translate(177.34897, 162.884008)"><g><path d="M 6.59375 0 L 5.203125 -2.640625 L 3.328125 -2.640625 L 3.328125 0 L 0.9375 0 L 0.9375 -9.390625 L 5.140625 -9.390625 C 6.378906 -9.390625 7.335938 -9.101562 8.015625 -8.53125 C 8.691406 -7.96875 9.03125 -7.160156 9.03125 -6.109375 C 9.03125 -4.660156 8.460938 -3.65625 7.328125 -3.09375 L 9.296875 0 Z M 3.328125 -4.515625 L 5.140625 -4.515625 C 5.648438 -4.515625 6.046875 -4.644531 6.328125 -4.90625 C 6.617188 -5.164062 6.765625 -5.539062 6.765625 -6.03125 C 6.765625 -6.507812 6.617188 -6.875 6.328125 -7.125 C 6.046875 -7.375 5.648438 -7.5 5.140625 -7.5 L 3.328125 -7.5 Z M 3.328125 -4.515625 "/></g></g></g><g fill="#9aa3ba" fill-opacity="1"><g transform="translate(189.057512, 162.884008)"><g><path d="M 8.28125 -7.5 L 3.328125 -7.5 L 3.328125 -5.640625 L 7.796875 -5.640625 L 7.796875 -3.765625 L 3.328125 -3.765625 L 3.328125 -1.875 L 8.4375 -1.875 L 8.4375 0 L 0.9375 0 L 0.9375 -9.390625 L 8.28125 -9.390625 Z M 8.28125 -7.5 "/></g></g></g><g fill="#9aa3ba" fill-opacity="1"><g transform="translate(200.096322, 162.884008)"><g><path d="M 7.890625 -7.5 L 3.328125 -7.5 L 3.328125 -5.328125 L 7.53125 -5.328125 L 7.53125 -3.453125 L 3.328125 -3.453125 L 3.328125 0 L 0.9375 0 L 0.9375 -9.390625 L 7.890625 -9.390625 Z M 7.890625 -7.5 "/></g></g></g><g fill="#9aa3ba" fill-opacity="1"><g transform="translate(210.197517, 162.884008)"><g><path d="M 3.328125 -2 L 7.3125 -2 L 7.3125 0 L 0.9375 0 L 0.9375 -9.390625 L 3.328125 -9.390625 Z M 3.328125 -2 "/></g></g></g><g fill="#9aa3ba" fill-opacity="1"><g transform="translate(219.709342, 162.884008)"><g><path d="M 8.28125 -7.5 L 3.328125 -7.5 L 3.328125 -5.640625 L 7.796875 -5.640625 L 7.796875 -3.765625 L 3.328125 -3.765625 L 3.328125 -1.875 L 8.4375 -1.875 L 8.4375 0 L 0.9375 0 L 0.9375 -9.390625 L 8.28125 -9.390625 Z M 8.28125 -7.5 "/></g></g></g><g fill="#9aa3ba" fill-opacity="1"><g transform="translate(230.748152, 162.884008)"><g><path d="M 5.328125 -9.46875 C 6.023438 -9.46875 6.710938 -9.320312 7.390625 -9.03125 C 8.066406 -8.75 8.640625 -8.367188 9.109375 -7.890625 L 7.734375 -6.25 C 7.429688 -6.625 7.066406 -6.921875 6.640625 -7.140625 C 6.210938 -7.359375 5.789062 -7.46875 5.375 -7.46875 C 4.632812 -7.46875 4.015625 -7.207031 3.515625 -6.6875 C 3.015625 -6.164062 2.765625 -5.519531 2.765625 -4.75 C 2.765625 -3.957031 3.015625 -3.296875 3.515625 -2.765625 C 4.015625 -2.242188 4.632812 -1.984375 5.375 -1.984375 C 5.769531 -1.984375 6.175781 -2.082031 6.59375 -2.28125 C 7.019531 -2.476562 7.398438 -2.742188 7.734375 -3.078125 L 9.125 -1.609375 C 8.613281 -1.085938 8.007812 -0.671875 7.3125 -0.359375 C 6.625 -0.046875 5.9375 0.109375 5.25 0.109375 C 3.84375 0.109375 2.671875 -0.347656 1.734375 -1.265625 C 0.796875 -2.191406 0.328125 -3.34375 0.328125 -4.71875 C 0.328125 -6.070312 0.800781 -7.203125 1.75 -8.109375 C 2.707031 -9.015625 3.898438 -9.46875 5.328125 -9.46875 Z M 5.328125 -9.46875 "/></g></g></g><g fill="#9aa3ba" fill-opacity="1"><g transform="translate(242.028066, 162.884008)"><g><path d="M 8.109375 -7.46875 L 5.28125 -7.46875 L 5.28125 0 L 2.890625 0 L 2.890625 -7.46875 L 0.09375 -7.46875 L 0.09375 -9.390625 L 8.109375 -9.390625 Z M 8.109375 -7.46875 "/></g></g></g><g fill="#9aa3ba" fill-opacity="1"><g transform="translate(252.223012, 162.884008)"><g><path d="M 4.546875 -9.484375 C 5.953125 -9.484375 7.1875 -9.140625 8.25 -8.453125 L 7.34375 -6.578125 C 6.851562 -6.867188 6.328125 -7.101562 5.765625 -7.28125 C 5.203125 -7.46875 4.726562 -7.5625 4.34375 -7.5625 C 3.65625 -7.5625 3.3125 -7.332031 3.3125 -6.875 C 3.3125 -6.582031 3.476562 -6.347656 3.8125 -6.171875 C 4.15625 -5.992188 4.570312 -5.835938 5.0625 -5.703125 C 5.550781 -5.578125 6.035156 -5.421875 6.515625 -5.234375 C 7.003906 -5.046875 7.414062 -4.75 7.75 -4.34375 C 8.09375 -3.9375 8.265625 -3.414062 8.265625 -2.78125 C 8.265625 -1.882812 7.910156 -1.179688 7.203125 -0.671875 C 6.503906 -0.171875 5.609375 0.078125 4.515625 0.078125 C 3.742188 0.078125 2.976562 -0.0507812 2.21875 -0.3125 C 1.457031 -0.582031 0.796875 -0.953125 0.234375 -1.421875 L 1.15625 -3.25 C 1.625 -2.84375 2.179688 -2.503906 2.828125 -2.234375 C 3.472656 -1.972656 4.046875 -1.84375 4.546875 -1.84375 C 4.929688 -1.84375 5.226562 -1.910156 5.4375 -2.046875 C 5.65625 -2.191406 5.765625 -2.398438 5.765625 -2.671875 C 5.765625 -2.929688 5.640625 -3.144531 5.390625 -3.3125 C 5.148438 -3.488281 4.84375 -3.617188 4.46875 -3.703125 C 4.101562 -3.785156 3.707031 -3.898438 3.28125 -4.046875 C 2.851562 -4.191406 2.457031 -4.347656 2.09375 -4.515625 C 1.726562 -4.679688 1.421875 -4.953125 1.171875 -5.328125 C 0.921875 -5.703125 0.796875 -6.144531 0.796875 -6.65625 C 0.796875 -7.519531 1.140625 -8.207031 1.828125 -8.71875 C 2.515625 -9.226562 3.421875 -9.484375 4.546875 -9.484375 Z M 4.546875 -9.484375 "/></g></g></g><g fill="#9aa3ba" fill-opacity="1"><g transform="translate(262.859997, 162.884008)"><g/></g></g><g fill="#9aa3ba" fill-opacity="1"><g transform="translate(267.978412, 162.884008)"><g><path d="M 3.328125 0 L 0.9375 0 L 0.9375 -9.390625 L 3.328125 -9.390625 Z M 3.328125 0 "/></g></g></g><g fill="#9aa3ba" fill-opacity="1"><g transform="translate(274.248744, 162.884008)"><g><path d="M 9.59375 0 L 7.5 0 L 3.171875 -5.78125 L 3.171875 0 L 0.9375 0 L 0.9375 -9.390625 L 3.046875 -9.390625 L 7.375 -3.59375 L 7.375 -9.390625 L 9.59375 -9.390625 Z M 9.59375 0 "/></g></g></g><g fill="#9aa3ba" fill-opacity="1"><g transform="translate(286.78776, 162.884008)"><g/></g></g><g fill="#9aa3ba" fill-opacity="1"><g transform="translate(291.906176, 162.884008)"><g><path d="M 3.328125 -2 L 7.3125 -2 L 7.3125 0 L 0.9375 0 L 0.9375 -9.390625 L 3.328125 -9.390625 Z M 3.328125 -2 "/></g></g></g><g fill="#9aa3ba" fill-opacity="1"><g transform="translate(301.418001, 162.884008)"><g><path d="M 3.328125 0 L 0.9375 0 L 0.9375 -9.390625 L 3.328125 -9.390625 Z M 3.328125 0 "/></g></g></g><g fill="#9aa3ba" fill-opacity="1"><g transform="translate(307.688333, 162.884008)"><g><path d="M 7.890625 -7.5 L 3.328125 -7.5 L 3.328125 -5.328125 L 7.53125 -5.328125 L 7.53125 -3.453125 L 3.328125 -3.453125 L 3.328125 0 L 0.9375 0 L 0.9375 -9.390625 L 7.890625 -9.390625 Z M 7.890625 -7.5 "/></g></g></g><g fill="#9aa3ba" fill-opacity="1"><g transform="translate(317.789528, 162.884008)"><g><path d="M 8.28125 -7.5 L 3.328125 -7.5 L 3.328125 -5.640625 L 7.796875 -5.640625 L 7.796875 -3.765625 L 3.328125 -3.765625 L 3.328125 -1.875 L 8.4375 -1.875 L 8.4375 0 L 0.9375 0 L 0.9375 -9.390625 L 8.28125 -9.390625 Z M 8.28125 -7.5 "/></g></g></g><g fill="#64ffda" fill-opacity="1"><g transform="translate(328.828338, 162.884008)"><g><path d="M 6.390625 -6.125 L 1.9375 -4.34375 L 6.390625 -2.5625 L 6.390625 -0.9375 L 0.4375 -3.421875 L 0.4375 -5.28125 L 6.390625 -7.765625 Z M 6.390625 -6.125 "/></g></g></g><g fill="#64ffda" fill-opacity="1"><g transform="translate(337.670432, 162.884008)"><g><path d="M 1.46875 1.484375 L -0.484375 1.484375 L 3.84375 -10.875 L 5.796875 -10.875 Z M 1.46875 1.484375 "/></g></g></g><g fill="#64ffda" fill-opacity="1"><g transform="translate(344.409583, 162.884008)"><g><path d="M 0.9375 -9.390625 L 5.03125 -9.390625 C 6.226562 -9.390625 7.15625 -9.101562 7.8125 -8.53125 C 8.476562 -7.96875 8.8125 -7.160156 8.8125 -6.109375 C 8.8125 -5.015625 8.476562 -4.160156 7.8125 -3.546875 C 7.15625 -2.941406 6.226562 -2.640625 5.03125 -2.640625 L 3.328125 -2.640625 L 3.328125 0 L 0.9375 0 Z M 3.328125 -7.5 L 3.328125 -4.515625 L 4.90625 -4.515625 C 5.4375 -4.515625 5.84375 -4.644531 6.125 -4.90625 C 6.414062 -5.164062 6.5625 -5.539062 6.5625 -6.03125 C 6.5625 -6.507812 6.414062 -6.875 6.125 -7.125 C 5.84375 -7.375 5.4375 -7.5 4.90625 -7.5 Z M 3.328125 -7.5 "/></g></g></g><g fill="#64ffda" fill-opacity="1"><g transform="translate(355.528776, 162.884008)"><g><path d="M 0.421875 -2.671875 L 4.890625 -4.453125 L 0.421875 -6.234375 L 0.421875 -7.859375 L 6.390625 -5.375 L 6.390625 -3.515625 L 0.421875 -1.03125 Z M 0.421875 -2.671875 "/></g></g></g></svg>