<svg xmlns="http://www.w3.org/2000/svg" xmlns:xlink="http://www.w3.org/1999/xlink" width="500" zoomAndPan="magnify" viewBox="0 0 375 374.999991" height="500" preserveAspectRatio="xMidYMid meet" version="1.0"><defs><g/><clipPath id="814af9f6c0"><path d="M 115.558594 90.042969 L 259.558594 90.042969 L 259.558594 221.292969 L 115.558594 221.292969 Z M 115.558594 90.042969 " clip-rule="nonzero"/></clipPath></defs><g clip-path="url(#814af9f6c0)"><path fill="#9aa3ba" d="M 159.113281 133.984375 C 162.535156 128.125 168.820312 123.117188 175.675781 122.375 C 178.46875 122.078125 192.777344 121.417969 192.777344 121.417969 L 179.207031 130.613281 L 176.085938 131.746094 L 167.214844 129.808594 Z M 169.878906 127.351562 L 175.882812 128.660156 L 177.851562 127.9375 L 182.359375 124.882812 C 180.246094 124.992188 178.074219 125.085938 176.007812 125.304688 C 173.878906 125.542969 171.800781 126.265625 169.894531 127.335938 Z M 196.890625 180.207031 C 196.890625 180.207031 198.71875 164.566406 194.824219 158.675781 C 197.347656 160.109375 202.296875 163.117188 204.03125 166.160156 C 204.4375 162.347656 206.644531 143.007812 204.203125 136.960938 C 208.222656 137.875 209.371094 139.023438 212.792969 141.210938 C 211.578125 137.984375 205.085938 122.015625 193.375 116.910156 C 207.589844 120.472656 221.757812 131.621094 223.351562 146.628906 C 224.011719 152.804688 224.847656 164.679688 219.160156 175.355469 C 218.75 171.167969 218.984375 161.667969 211.359375 151.355469 C 212.175781 156.789062 211.546875 175.152344 203.871094 186.207031 C 202.484375 181.511719 200.972656 175.007812 200.972656 175.007812 C 200.972656 175.007812 199.144531 179.71875 196.875 180.207031 Z M 212.996094 170.015625 C 212.996094 170.015625 219.964844 190.035156 206.410156 208.773438 C 207.542969 206.113281 209.199219 200.539062 208.601562 198.238281 C 207.6875 200.378906 202.722656 213.390625 188.113281 221.292969 C 190.824219 218.757812 195.1875 212.980469 194.433594 207.957031 C 192.398438 210.050781 185.527344 217.199219 177.457031 214.949219 C 182.328125 213.878906 197.410156 202.410156 196.90625 181.386719 C 198.828125 184.679688 203.980469 194.539062 203.980469 194.539062 C 203.980469 194.539062 209.988281 183.152344 212.996094 170 Z M 259.457031 152.835938 C 259.457031 152.835938 250.363281 146.550781 245.226562 132.109375 C 247.875 132.488281 248.945312 132.363281 248.945312 132.363281 C 239.332031 127.402344 235.421875 116.644531 226.804688 112.472656 C 227.75 110.941406 237.945312 97.652344 239.269531 91.871094 C 228.125 86.644531 197.550781 93.304688 191.121094 102.925781 C 176.984375 106 154.605469 119.652344 147.121094 133.84375 C 147.121094 133.84375 129.5625 139.257812 120.800781 145.890625 C 114.640625 150.550781 113.992188 157.386719 118.957031 163.636719 C 120.957031 165.449219 124.644531 169.984375 134.652344 175.703125 C 135.394531 177.355469 137.964844 183.765625 137.964844 183.765625 L 151.769531 192.457031 C 159.585938 188.617188 175.835938 187.199219 180.65625 195.953125 C 182.140625 198.648438 184.21875 204.191406 176.890625 213.371094 C 179.367188 212.382812 198.308594 199.339844 192.839844 175.875 C 191.878906 179.8125 191.484375 188.617188 185.324219 194.554688 C 184.566406 192.664062 183.558594 186.757812 173.550781 184.851562 C 174.273438 184.710938 176.734375 183.890625 177.664062 184.222656 C 175.960938 183.734375 168.363281 181.703125 151.972656 186.253906 C 150.144531 186.128906 144.503906 183.089844 143.558594 182.570312 C 142.457031 181.96875 141.492188 179.433594 141.289062 178.316406 C 142.628906 179.433594 147.609375 184.160156 150.066406 184.066406 C 148.855469 182.882812 147.402344 180.097656 147.546875 176.742188 C 149.105469 175.984375 157.664062 174.472656 163.761719 175.402344 L 175.457031 166.078125 L 176.859375 169.558594 C 176.859375 169.558594 179.113281 168.550781 176.101562 155.148438 C 178.042969 155.699219 180.136719 157.324219 180.136719 157.324219 C 180.136719 157.324219 178.828125 152.394531 169.074219 152.09375 C 165.921875 152 159.320312 153.511719 156.96875 155.132812 C 159.097656 153.355469 161.761719 151.464844 162.878906 150.976562 C 160.265625 151.734375 149.578125 154.976562 136.734375 168.945312 L 133.457031 170.789062 L 126.253906 165.308594 L 126.050781 158.992188 L 124.378906 157.796875 L 129.105469 155.859375 C 129.105469 155.859375 131.234375 150.820312 130.476562 148.867188 C 129.40625 148.316406 128.585938 147.96875 125.625 147.226562 C 126.492188 146.882812 130.570312 145.195312 130.570312 145.195312 C 130.570312 145.195312 130.539062 144.851562 130.257812 144.722656 C 136.953125 142.03125 143.8125 139.101562 150.714844 137.039062 C 151.027344 136.25 163.195312 115.179688 185.527344 110.4375 C 184.753906 110.109375 181.839844 109.96875 181.019531 110.265625 C 182.691406 109.589844 187.96875 107.511719 187.96875 107.511719 C 187.96875 107.511719 188.804688 109.039062 188.285156 109.839844 C 188.804688 109.367188 195.535156 101.117188 209.027344 96.753906 C 215.597656 94.628906 224.1875 93.351562 234.066406 94.644531 L 221.777344 111.226562 L 230.757812 96.421875 C 230.757812 96.421875 219.996094 96.582031 212.714844 100.1875 C 214.320312 100.515625 215.203125 100.691406 215.203125 100.691406 C 215.203125 100.691406 199.523438 104.109375 196.828125 110.976562 L 207.324219 107.636719 L 204.503906 113.527344 L 213.644531 108.078125 C 212.003906 110.015625 210.082031 113.605469 210.082031 113.605469 C 210.082031 113.605469 225.382812 115.117188 236.210938 129.984375 C 232.460938 127.605469 226.753906 123.335938 215.597656 121.304688 C 216.78125 122.660156 226.738281 130.328125 229.890625 147.007812 C 230.601562 143.226562 230.410156 140.265625 230.050781 137.746094 C 235.800781 153.210938 234.132812 160.566406 234.066406 165.261719 C 233.816406 161.890625 229.625 153.164062 227.828125 150.410156 C 231.71875 167.640625 223.949219 183.8125 222.894531 186.128906 C 223.179688 185.59375 222.296875 182.316406 221.777344 179.402344 C 219.160156 198.570312 207.796875 208.507812 205.402344 211.152344 C 222.183594 202.964844 229.230469 187.089844 230.902344 184.457031 C 231.453125 185.277344 229.703125 189.84375 228.757812 194.019531 C 232.871094 190.757812 237.550781 179.152344 237.550781 179.152344 C 237.550781 179.152344 238.039062 181.433594 237.234375 184.363281 C 243.382812 175.90625 244.1875 156.363281 241.855469 146.410156 C 245.871094 148.960938 251.4375 151.261719 259.441406 152.820312 Z M 144.707031 178.144531 L 139.679688 173.136719 C 139.679688 173.136719 138.359375 171.78125 139.824219 170.597656 L 152.824219 160.550781 C 154.433594 159.90625 164.109375 156.03125 164.109375 156.03125 C 167.496094 154.851562 169.359375 155.433594 170.351562 156.820312 L 172.460938 159.734375 L 157.394531 164.773438 L 152.9375 163.308594 L 150.113281 168.015625 L 145.671875 167.039062 L 144.804688 173.355469 L 142.992188 169.167969 C 142.992188 169.167969 141.476562 171.214844 144.707031 178.113281 Z M 172.636719 161.703125 L 172.730469 164.316406 L 162.011719 172.03125 C 162.011719 172.03125 152.179688 171.371094 146.960938 173.261719 L 146.882812 169.152344 L 150.539062 170.789062 L 154.433594 166.046875 L 158.40625 167.796875 L 160.089844 166.160156 L 172.636719 161.6875 Z M 172.636719 161.703125 " fill-opacity="1" fill-rule="evenodd"/></g><g fill="#9aa3ba" fill-opacity="1"><g transform="translate(163.065946, 255.779515)"><g><path d="M 12.273438 -10.738281 L 12.273438 -16.871094 L 10.738281 -18.40625 L 9.203125 -18.40625 L 7.667969 -16.871094 L 7.667969 -10.738281 Z M 0 0 L 1.535156 -1.535156 L 1.535156 -15.335938 L 6.132812 -19.941406 L 13.808594 -19.941406 L 18.40625 -15.335938 L 18.40625 -1.535156 L 19.941406 0 L 11.507812 0 L 12.273438 -1.535156 L 12.273438 -7.667969 L 13.808594 -9.203125 L 6.132812 -9.203125 L 7.667969 -7.667969 L 7.667969 -1.535156 L 8.4375 0 Z M 0 0 "/></g></g></g><g fill="#9aa3ba" fill-opacity="1"><g transform="translate(192.382671, 255.779515)"><g><path d="M 2.304688 0 L 0 -2.304688 L 0 -17.640625 L 2.304688 -19.941406 L 12.273438 -19.941406 L 13.808594 -18.40625 L 15.335938 -19.941406 L 15.335938 -13.808594 L 10.738281 -18.40625 L 4.605469 -18.40625 L 6.132812 -16.871094 L 6.132812 -3.070312 L 4.605469 -1.535156 L 9.972656 -1.535156 L 10.738281 -2.304688 L 10.738281 -7.667969 L 12.273438 -9.203125 L 10.738281 -9.203125 L 9.203125 -10.738281 L 16.871094 -10.738281 L 16.105469 -9.203125 L 16.105469 -1.535156 L 14.578125 0 Z M 2.304688 0 "/></g></g></g></svg>